<svg xmlns="http://www.w3.org/2000/svg" viewBox="0 0 200 200" width="200" height="200">
  <!-- Background Circle -->
  <circle cx="100" cy="100" r="95" fill="#3b82f6"/>
  
  <!-- Computer Monitor -->
  <rect x="50" y="60" width="100" height="70" rx="4" fill="#1e293b" stroke="#ffffff" stroke-width="3"/>
  
  <!-- Screen -->
  <rect x="58" y="68" width="84" height="54" rx="2" fill="#60a5fa"/>
  
  <!-- Screen Details -->
  <rect x="65" y="75" width="20" height="20" rx="2" fill="#3b82f6"/>
  <rect x="90" y="75" width="20" height="20" rx="2" fill="#3b82f6"/>
  <rect x="115" y="75" width="20" height="20" rx="2" fill="#3b82f6"/>
  <rect x="65" y="100" width="70" height="4" rx="2" fill="#2563eb"/>
  <rect x="65" y="108" width="50" height="4" rx="2" fill="#2563eb"/>
  
  <!-- Monitor Stand -->
  <rect x="90" y="130" width="20" height="8" rx="2" fill="#1e293b" stroke="#ffffff" stroke-width="2"/>
  <rect x="75" y="138" width="50" height="4" rx="2" fill="#1e293b" stroke="#ffffff" stroke-width="2"/>
  
  <!-- Settings/Gear Icon (top right) -->
  <g transform="translate(145, 75)">
    <circle cx="0" cy="0" r="12" fill="#f59e0b" stroke="#ffffff" stroke-width="2"/>
    <circle cx="0" cy="0" r="6" fill="#1e293b"/>
    <rect x="-2" y="-15" width="4" height="6" rx="1" fill="#f59e0b"/>
    <rect x="-2" y="9" width="4" height="6" rx="1" fill="#f59e0b"/>
    <rect x="-15" y="-2" width="6" height="4" rx="1" fill="#f59e0b"/>
    <rect x="9" y="-2" width="6" height="4" rx="1" fill="#f59e0b"/>
  </g>
  
  <!-- Checkmark (bottom left) -->
  <g transform="translate(60, 110)">
    <circle cx="0" cy="0" r="10" fill="#22c55e" stroke="#ffffff" stroke-width="2"/>
    <path d="M -4 0 L -1 4 L 5 -4" stroke="#ffffff" stroke-width="2.5" stroke-linecap="round" fill="none"/>
  </g>
</svg>